<svg width="300" height="300" viewBox="0 0 300 300" fill="none" xmlns="http://www.w3.org/2000/svg">
<!-- Body with gradient -->
<ellipse cx="150" cy="200" rx="80" ry="60" fill="url(#bodyGradient)"/>

<!-- Head with gradient -->
<circle cx="150" cy="120" r="50" fill="url(#headGradient)"/>

<!-- Ears with improved styling -->
<path d="M100 100C90 80 80 90 85 110" fill="url(#earGradient)" stroke="#8B5A2B" stroke-width="2" class="ear left-ear"/>
<path d="M200 100C210 80 220 90 215 110" fill="url(#earGradient)" stroke="#8B5A2B" stroke-width="2" class="ear right-ear"/>

<!-- Eyes with highlights -->
<circle cx="130" cy="110" r="8" fill="white" class="eye"/>
<circle cx="170" cy="110" r="8" fill="white" class="eye"/>
<circle cx="130" cy="110" r="4" fill="#333333" class="pupil"/>
<circle cx="170" cy="110" r="4" fill="#333333" class="pupil"/>
<circle cx="132" cy="108" r="2" fill="white" class="eye-highlight"/>
<circle cx="172" cy="108" r="2" fill="white" class="eye-highlight"/>

<!-- Nose with gradient -->
<ellipse cx="150" cy="130" rx="10" ry="6" fill="url(#noseGradient)" class="nose"/>

<!-- Mouth with improved styling -->
<path d="M140 140C145 150 155 150 160 140" stroke="#333333" stroke-width="2" stroke-linecap="round" class="mouth"/>

<!-- Tail with gradient -->
<path d="M230 180C250 170 260 190 240 200" fill="url(#tailGradient)" stroke="#8B5A2B" stroke-width="2" class="tail"/>

<!-- Front Legs with gradients -->
<rect x="120" y="240" width="15" height="40" rx="7.5" fill="url(#bodyGradient)" class="leg front-leg-left"/>
<rect x="165" y="240" width="15" height="40" rx="7.5" fill="url(#bodyGradient)" class="leg front-leg-right"/>

<!-- Back Legs with gradients -->
<rect x="100" y="240" width="15" height="30" rx="7.5" fill="url(#bodyGradient)" class="leg back-leg-left"/>
<rect x="185" y="240" width="15" height="30" rx="7.5" fill="url(#bodyGradient)" class="leg back-leg-right"/>

<!-- Paws with improved styling -->
<ellipse cx="127.5" cy="280" rx="10" ry="5" fill="url(#pawGradient)" class="paw front-paw-left"/>
<ellipse cx="172.5" cy="280" rx="10" ry="5" fill="url(#pawGradient)" class="paw front-paw-right"/>
<ellipse cx="107.5" cy="270" rx="8" ry="4" fill="url(#pawGradient)" class="paw back-paw-left"/>
<ellipse cx="192.5" cy="270" rx="8" ry="4" fill="url(#pawGradient)" class="paw back-paw-right"/>

<!-- Collar with gradient -->
<path d="M110 150C110 150 150 170 190 150" stroke="url(#collarGradient)" stroke-width="8" stroke-linecap="round" class="collar"/>
<circle cx="150" cy="160" r="5" fill="#FF9D5C" class="collar-tag"/>

<!-- Definitions for gradients -->
<defs>
  <linearGradient id="bodyGradient" x1="150" y1="140" x2="150" y2="260" gradientUnits="userSpaceOnUse">
    <stop offset="0" stop-color="#C69B76"/>
    <stop offset="1" stop-color="#A67C52"/>
  </linearGradient>
  
  <linearGradient id="headGradient" x1="150" y1="70" x2="150" y2="170" gradientUnits="userSpaceOnUse">
    <stop offset="0" stop-color="#C69B76"/>
    <stop offset="1" stop-color="#A67C52"/>
  </linearGradient>
  
  <linearGradient id="earGradient" x1="100" y1="80" x2="100" y2="110" gradientUnits="userSpaceOnUse">
    <stop offset="0" stop-color="#C69B76"/>
    <stop offset="1" stop-color="#8B5A2B"/>
  </linearGradient>
  
  <linearGradient id="noseGradient" x1="150" y1="124" x2="150" y2="136" gradientUnits="userSpaceOnUse">
    <stop offset="0" stop-color="#333333"/>
    <stop offset="1" stop-color="#000000"/>
  </linearGradient>
  
  <linearGradient id="tailGradient" x1="230" y1="170" x2="260" y2="200" gradientUnits="userSpaceOnUse">
    <stop offset="0" stop-color="#C69B76"/>
    <stop offset="1" stop-color="#A67C52"/>
  </linearGradient>
  
  <linearGradient id="pawGradient" x1="130" y1="275" x2="130" y2="285" gradientUnits="userSpaceOnUse">
    <stop offset="0" stop-color="#9D6B48"/>
    <stop offset="1" stop-color="#8B5A2B"/>
  </linearGradient>
  
  <linearGradient id="collarGradient" x1="110" y1="150" x2="190" y2="150" gradientUnits="userSpaceOnUse">
    <stop offset="0" stop-color="#5CB8FF"/>
    <stop offset="1" stop-color="#8DCFFF"/>
  </linearGradient>
</defs>

<style>
  .eye, .pupil, .mouth, .tail, .ear, .nose, .leg, .paw, .collar-tag {
    transition: all 0.3s ease;
  }
  
  svg:hover .pupil {
    transform: scale(1.2);
  }
  
  svg:hover .eye-highlight {
    transform: scale(1.2);
    opacity: 0.9;
  }
  
  svg.happy .mouth {
    d: path("M140 140C145 145 155 145 160 140");
  }
  
  svg.happy .pupil {
    transform: scale(1.2);
    cy: 108;
  }
  
  svg.wagging .tail {
    transform-origin: 230px 180px;
    animation: wag 0.5s ease-in-out infinite alternate;
  }
  
  svg:hover .ear.left-ear {
    transform-origin: 100px 100px;
    transform: rotate(-5deg);
  }
  
  svg:hover .ear.right-ear {
    transform-origin: 200px 100px;
    transform: rotate(5deg);
  }
  
  svg:hover .collar-tag {
    transform: translateY(2px);
  }
  
  @keyframes wag {
    0% { transform: rotate(-20deg); }
    100% { transform: rotate(20deg); }
  }
  
  @keyframes bounce {
    0%, 100% { transform: translateY(0); }
    50% { transform: translateY(-10px); }
  }
</style>
</svg>

