<svg width="100" height="100" viewBox="0 0 100 100" fill="none" xmlns="http://www.w3.org/2000/svg">
  <circle cx="50" cy="50" r="45" fill="#FF9D5C" opacity="0.2"/>
  <circle cx="50" cy="50" r="25" fill="#A67C52"/>
  <path d="M50 25V50L65 65" stroke="white" stroke-width="4" stroke-linecap="round" stroke-linejoin="round"/>
  <path d="M30 20C25 15 25 10 30 10C35 10 40 15 35 20" fill="#5CB8FF"/>
  <path d="M70 20C75 15 75 10 70 10C65 10 60 15 65 20" fill="#5CB8FF"/>
  <path d="M30 80C25 85 25 90 30 90C35 90 40 85 35 80" fill="#5CB8FF"/>
  <path d="M70 80C75 85 75 90 70 90C65 90 60 85 65 80" fill="#5CB8FF"/>
</svg>

